# File created by Blade
# Date/Time:  Tue Sep 30 19:31:45 2014
#---------------------------------------------------------
:version 1.10
:name HOM
:units
  mass 1.0
  length 1.000000
  angle deg
:documentation
     Acclaim Skeleton File
:root
   axis xyz
   order TX TY TZ RX RY RZ
   position 0.000000 0.000000 0.000000
   orientation 0 0 0
:bonedata
   begin
      id 1
      name Spine_dum
      direction 0.000000 1.000000 0.000000
      length 3.241213
      axis 0.0 0.0 0.0 xyz
   end
   begin
      id 2
      name LeftUpLeg_dum
      direction 1.000000 0.000000 0.000000
      length 3.434019
      axis 0.0 0.0 0.0 xyz
   end
   begin
      id 3
      name RightUpLeg_dum
      direction -1.000000 0.000000 0.000000
      length 3.434019
      axis 0.0 0.0 0.0 xyz
   end
   begin
      id 4
      name Spine
      direction 0.000000 1.000000 0.000000
      length 0.000000
      axis 0.0 0.0 0.0 xyz
      dof rx ry rz
   end
   begin
      id 5
      name Spine_dum1
      direction 0.000000 1.000000 0.000000
      length 18.382958
      axis 0.0 0.0 0.0 xyz
   end
   begin
      id 6
      name Spine_dum2
      direction 0.000000 1.000000 0.000000
      length 12.828261
      axis 0.0 0.0 0.0 xyz
   end
   begin
      id 7
      name Spine_dum3
      direction 0.000000 1.000000 0.000000
      length 12.828261
      axis 0.0 0.0 0.0 xyz
   end
   begin
      id 8
      name Head
      direction 0.000000 1.000000 0.000000
      length 4.527550
      axis 0.0 0.0 0.0 xyz
      dof rx ry rz
   end
   begin
      id 9
      name LeftShoulder
      direction 1.000000 0.000000 0.000000
      length 7.748055
      axis 0.0 0.0 -90.0 xyz
      dof rx ry rz
   end
   begin
      id 10
      name LeftArm
      direction 1.000000 0.000000 0.000000
      length 10.635614
      axis 0.0 0.0 -90.0 xyz
      dof rx ry rz
   end
   begin
      id 11
      name LeftForeArm
      direction 1.000000 0.000000 0.000000
      length 8.346755
      axis 0.0 0.0 -90.0 xyz
      dof ry rz rx
   end
   begin
      id 12
      name LeftHand
      direction 0.000000 0.000000 0.000000
      length 0.000000
      axis 0.0 0.0 -90.0 xyz
      dof rx ry rz
   end
   begin
      id 13
      name LeftHand_dum1
      direction 0.000000 0.000000 0.000000
      length 0.000000
      axis 0.0 0.0 -90.0 xyz
   end
   begin
      id 14
      name LeftHand_dum2
      direction 1.000000 0.000000 0.000000
      length 3.937000
      axis 0.0 0.0 -90.0 xyz
   end
   begin
      id 15
      name LeftHandThumb1
      direction 0.000000 0.000000 1.000000
      length 3.937000
      axis 0.0 0.0 -90.0 xyz
      dof rx rz ry
   end
   begin
      id 16
      name RightShoulder
      direction -1.000000 0.000000 0.000000
      length 7.748055
      axis 0.0 0.0 90.0 xyz
      dof rx ry rz
   end
   begin
      id 17
      name RightArm
      direction -1.000000 0.000000 0.000000
      length 10.635614
      axis 0.0 0.0 90.0 xyz
      dof rx ry rz
   end
   begin
      id 18
      name RightForeArm
      direction -1.000000 0.000000 0.000000
      length 8.346755
      axis 0.0 0.0 90.0 xyz
      dof ry rz rx
   end
   begin
      id 19
      name RightHand
      direction 0.000000 0.000000 0.000000
      length 0.000000
      axis 0.0 0.0 90.0 xyz
      dof rx ry rz
   end
   begin
      id 20
      name RightHand_dum1
      direction 0.000000 0.000000 0.000000
      length 0.000000
      axis 0.0 0.0 90.0 xyz
   end
   begin
      id 21
      name RightHand_dum2
      direction -1.000000 0.000000 0.000000
      length 3.937000
      axis 0.0 0.0 90.0 xyz
   end
   begin
      id 22
      name RightHandThumb1
      direction 0.000000 0.000000 1.000000
      length 3.937000
      axis 0.0 0.0 90.0 xyz
      dof rx rz ry
   end
   begin
      id 23
      name LeftUpLeg
      direction 0.000000 -1.000000 0.000000
      length 15.713025
      axis 0.0 0.0 0.0 xyz
      dof rx ry rz
   end
   begin
      id 24
      name LeftLeg
      direction 0.000000 -1.000000 0.000000
      length 14.435119
      axis 0.0 0.0 0.0 xyz
      dof rx ry rz
   end
   begin
      id 25
      name LeftFoot
      direction 0.000000 -0.258819 0.965926
      length 4.938895
      axis 15.0 0.0 0.0 xyz
      dof rx ry rz
   end
   begin
      id 26
      name LeftToeBase
      direction 0.000000 0.000000 1.000000
      length 2.952750
      axis 0.0 0.0 0.0 xyz
      dof rx ry rz
   end
   begin
      id 27
      name RightUpLeg
      direction 0.000000 -1.000000 0.000000
      length 15.713025
      axis 0.0 0.0 0.0 xyz
      dof rx ry rz
   end
   begin
      id 28
      name RightLeg
      direction 0.000000 -1.000000 0.000000
      length 14.435119
      axis 0.0 0.0 0.0 xyz
      dof rx ry rz
   end
   begin
      id 29
      name RightFoot
      direction 0.000000 -0.258819 0.965926
      length 4.938895
      axis 15.0 0.0 0.0 xyz
      dof rx ry rz
   end
   begin
      id 30
      name RightToeBase
      direction 0.000000 0.000000 1.000000
      length 2.952750
      axis 0.0 0.0 0.0 xyz
      dof rx ry rz
   end
:hierarchy
   begin
      root Spine_dum LeftUpLeg_dum RightUpLeg_dum
      Spine_dum Spine
      LeftUpLeg_dum LeftUpLeg
      RightUpLeg_dum RightUpLeg
      Spine Spine_dum1 Spine_dum2 Spine_dum3
      Spine_dum1 Head
      Spine_dum2 LeftShoulder
      Spine_dum3 RightShoulder
      LeftShoulder LeftArm
      LeftArm LeftForeArm
      LeftForeArm LeftHand
      LeftHand LeftHand_dum1 LeftHand_dum2
      LeftHand_dum1 LeftHandThumb1
      RightShoulder RightArm
      RightArm RightForeArm
      RightForeArm RightHand
      RightHand RightHand_dum1 RightHand_dum2
      RightHand_dum1 RightHandThumb1
      LeftUpLeg LeftLeg
      LeftLeg LeftFoot
      LeftFoot LeftToeBase
      RightUpLeg RightLeg
      RightLeg RightFoot
      RightFoot RightToeBase
   end

# File created by Blade
# Date/Time:  Mon Sep 22 19:00:17 2014
# Frame Rate: 120.000 fps
#------------------------------------------------------
:FULLY-SPECIFIED
:DEGREES
697
root -0.698230 32.767717 -3.805002 38.474036 22.370590 2.680175
Spine -46.297237 11.991737 -15.597654
Head 1.454065 -18.400326 -9.132716
LeftShoulder -9.044215 42.841159 12.230335
LeftArm 72.156392 34.761430 -47.181940
LeftForeArm 9.528329 0.000000 7.162403
LeftHand -18.991030 -0.000000 -9.496211
LeftHandThumb1 -26.253704 0.000000 33.147579
RightShoulder -9.463994 -2.060816 -50.539275
RightArm 106.419857 31.790816 115.451556
RightForeArm 80.953362 0.000000 65.083140
RightHand 25.754385 0.000000 -3.250046
RightHandThumb1 -24.326973 -0.000000 -32.862282
LeftUpLeg -35.649884 -6.567225 7.086619
LeftLeg -0.894437 -0.000000 0.000000
LeftFoot 1.070239 -6.841290 -3.949717
LeftToeBase 2.111884 -0.000000 -0.000000
RightUpLeg -30.578150 -19.373954 10.373649
RightLeg -3.363163 -0.000000 0.000000
RightFoot -10.145514 -14.186217 19.661544
RightToeBase 14.855133 -0.000000 -0.000000
698
root -0.700285 32.768150 -3.806492 38.465006 22.346789 2.678818
Spine -46.230827 12.017673 -15.556493
Head 1.561273 -18.355819 -9.313815
LeftShoulder -9.059321 42.854083 12.178825
LeftArm 72.132484 34.762129 -47.179825
LeftForeArm 9.486406 0.000000 7.173704
LeftHand -18.956926 -0.000000 -9.546277
LeftHandThumb1 -26.253704 0.000000 33.147579
RightShoulder -9.439211 -2.003810 -50.575730
RightArm 106.528482 31.689771 116.009971
RightForeArm 80.737331 -0.000000 66.970354
RightHand 25.673048 -0.000000 -3.292642
RightHandThumb1 -24.326973 -0.000000 -32.862282
LeftUpLeg -35.637327 -6.569043 7.089195
LeftLeg -0.903306 -0.000000 0.000000
LeftFoot 1.082964 -6.816319 -3.944417
LeftToeBase 2.088389 -0.000000 -0.000000
RightUpLeg -30.573115 -19.389819 10.382211
RightLeg -3.375277 -0.000000 0.000000
RightFoot -10.143575 -14.148434 19.679419
RightToeBase 14.896017 -0.000000 -0.000000
699
root -0.702214 32.768744 -3.808425 38.462664 22.319007 2.678415
Spine -46.180933 12.047316 -15.530368
Head 1.678017 -18.345762 -9.497257
LeftShoulder -9.050049 42.873509 12.147488
LeftArm 72.116486 34.761106 -47.183539
LeftForeArm 9.437171 -0.000000 7.153019
LeftHand -18.888751 -0.000000 -9.603610
LeftHandThumb1 -26.253704 0.000000 33.147579
RightShoulder -9.407163 -2.028379 -50.562548
RightArm 106.747198 31.569052 116.563719
RightForeArm 80.507248 -0.000000 68.840393
RightHand 25.600720 -0.000000 -3.247198
RightHandThumb1 -24.326973 -0.000000 -32.862282
LeftUpLeg -35.629290 -6.566861 7.087754
LeftLeg -0.915438 -0.000000 0.000000
LeftFoot 1.091642 -6.790996 -3.941528
LeftToeBase 2.090086 -0.000000 -0.000000
RightUpLeg -30.569109 -19.386262 10.380283
RightLeg -3.394928 -0.000000 0.000000
RightFoot -10.115816 -14.123872 19.650826
RightToeBase 14.908177 -0.000000 -0.000000
700
root -0.703372 32.769296 -3.810917 38.467066 22.293510 2.684075
Spine -46.138616 12.064282 -15.493448
Head 1.805585 -18.342813 -9.700770
LeftShoulder -9.034983 42.920631 12.114538
LeftArm 72.087646 34.738902 -47.224373
LeftForeArm 9.429964 0.000000 7.148515
LeftHand -18.860909 -0.000000 -9.642083
LeftHandThumb1 -26.253704 0.000000 33.147579
RightShoulder -9.340228 -2.145620 -50.540010
RightArm 107.111996 31.406223 117.200904
RightForeArm 80.292535 -0.000000 70.716994
RightHand 25.535331 0.000000 -3.462241
RightHandThumb1 -24.326973 -0.000000 -32.862282
LeftUpLeg -35.632414 -6.558313 7.072489
LeftLeg -0.916884 -0.000000 0.000000
LeftFoot 1.104798 -6.781684 -3.941127
LeftToeBase 2.092204 -0.000000 -0.000000
RightUpLeg -30.566003 -19.371628 10.365519
RightLeg -3.420873 -0.000000 0.000000
RightFoot -10.096733 -14.129061 19.674012
RightToeBase 14.868645 -0.000000 -0.000000
701
root -0.704515 32.770242 -3.811407 38.469374 22.268245 2.685040
Spine -46.095068 12.084293 -15.463317
Head 1.914964 -18.317791 -9.895977
LeftShoulder -9.037556 42.960880 12.074329
LeftArm 72.061077 34.720068 -47.256871
LeftForeArm 9.461387 -0.000000 7.150164
LeftHand -18.864908 -0.000000 -9.691945
LeftHandThumb1 -26.253704 0.000000 33.147579
RightShoulder -9.308651 -2.266097 -50.510449
RightArm 107.479331 31.211360 117.835600
RightForeArm 80.017379 -0.000000 72.587975
RightHand 25.553155 -0.000000 -3.366899
RightHandThumb1 -24.326973 -0.000000 -32.862282
LeftUpLeg -35.626690 -6.561901 7.074391
LeftLeg -0.928852 -0.000000 0.000000
LeftFoot 1.119902 -6.755143 -3.949973
LeftToeBase 2.080381 -0.000000 -0.000000
RightUpLeg -30.582893 -19.401191 10.388375
RightLeg -3.419591 -0.000000 0.000000
RightFoot -10.065357 -14.099548 19.627675
RightToeBase 14.888472 -0.000000 -0.000000
702
root -0.706223 32.770300 -3.810320 38.466284 22.252432 2.682144
Spine -46.042954 12.105624 -15.433753
Head 2.010678 -18.296312 -10.093637
LeftShoulder -9.038048 42.959187 12.043242
LeftArm 72.025919 34.737580 -47.271846
LeftForeArm 9.477268 -0.000000 7.155825
LeftHand -18.882527 -0.000000 -9.778622
LeftHandThumb1 -26.253704 0.000000 33.147579
RightShoulder -9.307155 -2.306142 -50.503264
RightArm 107.757772 31.037536 118.447948
RightForeArm 79.701502 -0.000000 74.472971
RightHand 25.365077 -0.000000 -3.395567
RightHandThumb1 -24.326973 -0.000000 -32.862282
LeftUpLeg -35.617959 -6.550263 7.070357
LeftLeg -0.935424 -0.000000 0.000000
LeftFoot 1.122204 -6.744933 -3.969675
LeftToeBase 2.094845 -0.000000 -0.000000
RightUpLeg -30.582224 -19.429769 10.414103
RightLeg -3.435156 -0.000000 0.000000
RightFoot -10.040518 -14.062909 19.581847
RightToeBase 14.914022 -0.000000 -0.000000
703
root -0.707321 32.770855 -3.810590 38.463745 22.234713 2.684498
Spine -45.982544 12.130656 -15.402159
Head 2.075788 -18.293871 -10.315514
LeftShoulder -9.059511 42.961269 11.989733
LeftArm 72.004625 34.744648 -47.285617
LeftForeArm 9.426705 -0.000000 7.151667
LeftHand -18.942095 -0.000000 -9.613867
LeftHandThumb1 -26.253704 0.000000 33.147579
RightShoulder -9.306694 -2.253957 -50.497642
RightArm 107.951279 30.923791 118.974448
RightForeArm 79.468637 0.000000 76.364048
RightHand 25.219248 -0.000000 -3.186016
RightHandThumb1 -24.326973 -0.000000 -32.862282
LeftUpLeg -35.610553 -6.538305 7.059386
LeftLeg -0.942036 -0.000000 0.000000
LeftFoot 1.135620 -6.743749 -3.945649
LeftToeBase 2.060044 -0.000000 -0.000000
RightUpLeg -30.577226 -19.436885 10.413579
RightLeg -3.448961 -0.000000 0.000000
RightFoot -10.022964 -14.042753 19.596093
RightToeBase 14.908427 -0.000000 -0.000000
704
root -0.708654 32.770941 -3.809822 38.468349 22.223594 2.687405
Spine -45.923120 12.141305 -15.378150
Head 2.111953 -18.307619 -10.504578
LeftShoulder -9.108041 42.947311 11.940280
LeftArm 71.993748 34.769712 -47.302069
LeftForeArm 9.428396 -0.000000 7.130804
LeftHand -18.958307 -0.000000 -9.564022
LeftHandThumb1 -26.253704 0.000000 33.147579
RightShoulder -9.344738 -2.155153 -50.478305
RightArm 108.095587 30.795162 119.462962
RightForeArm 79.259703 -0.000000 78.287203
RightHand 25.179215 -0.000000 -3.339449
RightHandThumb1 -24.326973 -0.000000 -32.862282
LeftUpLeg -35.607437 -6.544236 7.061551
LeftLeg -0.952779 -0.000000 0.000000
LeftFoot 1.139650 -6.727218 -3.929121
LeftToeBase 2.067572 -0.000000 -0.000000
RightUpLeg -30.581129 -19.462473 10.432093
RightLeg -3.463306 -0.000000 0.000000
RightFoot -9.994624 -13.998062 19.598032
RightToeBase 14.866938 -0.000000 -0.000000
705
root -0.709317 32.771288 -3.809587 38.457948 22.211495 2.690190
Spine -45.865843 12.160912 -15.331693
Head 2.226041 -18.301820 -10.777326
LeftShoulder -9.123748 42.970534 11.884266
LeftArm 71.970815 34.756555 -47.332980
LeftForeArm 9.455197 0.000000 7.125799
LeftHand -19.001948 0.000000 -9.658830
LeftHandThumb1 -26.253704 0.000000 33.147579
RightShoulder -9.335977 -1.990544 -50.501894
RightArm 108.144827 30.736971 119.884614
RightForeArm 79.124880 -0.000000 80.293718
RightHand 25.067430 0.000000 -3.437558
RightHandThumb1 -24.326973 -0.000000 -32.862282
LeftUpLeg -35.591491 -6.539172 7.052400
LeftLeg -0.958510 -0.000000 0.000000
LeftFoot 1.150514 -6.721641 -3.958147
LeftToeBase 2.047969 -0.000000 -0.000000
RightUpLeg -30.570821 -19.475956 10.432598
RightLeg -3.471604 -0.000000 0.000000
RightFoot -9.991857 -13.978146 19.588495
RightToeBase 14.904840 -0.000000 -0.000000
